<?xml version="1.0" encoding="utf-8"?>
<!-- Generator: Adobe Illustrator 19.2.1, SVG Export Plug-In . SVG Version: 6.00 Build 0)  -->
<svg version="1.1" id="Capa_1" xmlns="http://www.w3.org/2000/svg" xmlns:xlink="http://www.w3.org/1999/xlink" x="0px" y="0px"
	 viewBox="0 0 130.1 148.2" style="enable-background:new 0 0 130.1 148.2;" xml:space="preserve">
<style type="text/css">
	.st0{fill:#9CC554;}
	.st1{fill:#6600FF;}
	.st2{fill:#66BCFF;}
	.st3{display:none;opacity:0.4;}
	.st4{display:inline;fill:none;stroke:#000000;stroke-width:0.5;stroke-miterlimit:10;}
</style>
<g id="Capa_4">
</g>
<g id="Capa_2">
	<g>
		<g>
			<path class="st0" d="M130.1,84.9c-0.6-19.6-6.7-36.5-7.3-38.3C116,21.4,105.7,6.2,92,1.5C80-2.6,69.2,2.7,65.1,5.3
				c-4.1-2.5-14.9-7.9-27-3.8c-13.6,4.7-24,19.9-30.8,45.1C6.7,48.4,0.6,65.3,0,84.9c-0.4,12.1,1.5,22.6,5.5,31.3
				c5,11.1,13.5,19.2,25.1,24.1c1.1,0.6,9.2,4.6,21.2,6.7c4,0.7,8.8,1.2,14,1.2c10,0,21.8-1.9,33.8-7.9c11.6-4.9,20.1-13,25.1-24.1
				C128.6,107.5,130.5,97,130.1,84.9z M97.3,135.3l-0.2,0.1c-13.6,6.8-28.5,8.9-44.2,6.2c-11.8-2-20.1-6.3-20.1-6.3
				c-18.8-8-27.9-24.8-27.2-50.1c0.5-19.4,7-36.6,7-36.8l0.1-0.3c3.4-12.8,7.8-22.9,13-30c4.2-5.7,9-9.5,14.1-11.3
				c10-3.5,19.3,1.4,22.5,3.3v24.2c0,0.7,0.3,1.3,0.8,1.7c0.5,0.4,1.2,0.7,1.9,0.7c1.5,0,2.7-1.1,2.7-2.4V10.1
				c3.2-2,12.4-6.8,22.4-3.3c5.2,1.8,10,5.6,14.2,11.3c5.2,7.1,9.6,17.2,13.1,30.1l0.1,0.3c0.1,0.2,6.5,17.4,7,36.8
				C125.3,110.5,116.1,127.3,97.3,135.3z"/>
		</g>
		<path class="st1" d="M65.2,88.6"/>
		<path class="st0" d="M75.4,52.4c-2.9,2.8-6.6,4.3-10.3,4.3c-3.8,0-7.5-1.4-10.4-4.3c-5.6-5.7-5.7-14.8-0.2-20.5c0,0,0,0,0,0
			c0.1-0.1,0.1-0.1,0.2-0.2c0.4-0.3,0.8-0.5,1.4-0.5c1.1,0,2,0.9,2,2c0,0.5-0.2,1-0.5,1.4l0,0c-4.2,4.1-4.2,10.9,0,15s10.9,4.2,15,0
			c4.2-4.1,4.2-10.9,0-15C72.2,34.1,72,33.6,72,33c0-1.1,0.9-2,2-2c0.6,0,1.1,0.2,1.5,0.6l0,0C81.2,37.3,81.2,46.7,75.4,52.4z"/>
		<g>
			<path class="st0" d="M104.2,132.2c-0.1,0.7-0.7,6.6-5,8.1c-0.6,0.2-1.3,0.3-1.9,0.3c-3.9,0-7.5-3.9-8.8-5.3
				c-4.1-4.4-7.6-10.3-11-16c-4.2-6.9-8.9-14.8-12.4-15c-3.5,0.2-8.2,8.1-12.4,15c-3.4,5.7-7,11.6-11,16c-1.3,1.4-4.9,5.3-8.8,5.3
				c-0.6,0-1.3-0.1-1.9-0.3c-4.3-1.5-4.9-7.4-5-8.1l0.3,0L50,82.9l5,2.4l-23.1,48.1c0.3,0.9,0.6,1.5,0.9,1.6
				c0.3,0.1,1.8-0.2,4.8-3.5c3.7-4,7-9.6,10.3-15c5.6-9.4,10.5-17.5,17-17.7c0.1,0,0.1,0,0.1,0s0.1,0,0.1,0
				c6.5,0.2,11.4,8.3,17,17.7c3.3,5.4,6.7,11.1,10.3,15c3,3.2,4.6,3.6,4.8,3.5c0.3-0.1,0.7-0.8,0.9-1.7L75.2,85.3l5-2.4l23.7,49.3
				L104.2,132.2z"/>
		</g>
		<g>
			<path class="st2" d="M122.6,45.9c-0.6-1.2-1.5-2.1-2.7-2.6c-0.2-0.2-0.4-0.3-0.7-0.4c-1.7-0.7-6-2.7-40.8,18.8l-0.3,0.2l-0.2,0.2
				c-0.3,0.3-7.3,7.6-3.2,20c-5.8,2.3-9,2.4-9.4,2.4H65c0,0,0,0,0,0c-0.3,0-3.5-0.1-9.4-2.4c4.1-12.3-2.9-19.7-3.2-20l-0.2-0.2
				l-0.3-0.2C17.1,40.3,12.7,42.2,11.1,43c-0.2,0.1-0.5,0.2-0.6,0.4c-1.2,0.5-2.2,1.4-2.7,2.6c-1.6,3.5,1,8.6,1.8,10.1l0.2,0.4
				l0.3,0.3c18.9,18,33,26.1,41.5,29.8c7.7,3.3,12.2,3.6,13.5,3.6H65c0.1,0,0.1,0,0.1,0c0,0,0.1,0,0.1,0c0,0,0.1,0,0.1,0h0
				c1.1,0,5.6-0.2,13.6-3.6c8.5-3.7,22.6-11.8,41.5-29.8l0.3-0.3l0.2-0.4C121.7,54.5,124.2,49.4,122.6,45.9z M50.5,79.9
				C42.3,75.8,30,68,14.1,52.9c-0.8-1.6-1.4-3.6-1.4-4.5l1.1-0.2c2.4,0.4,10.5,3.1,34.8,18C49.5,67.3,52.8,72,50.5,79.9z
				 M116.2,52.9C100.3,68,88,75.8,79.8,79.9c-2.3-7.8,1-12.6,1.9-13.6c24.3-14.9,32.4-17.6,34.7-18l1.1,0.2
				C117.6,49.3,117,51.3,116.2,52.9z"/>
		</g>
		<g>
			<path class="st0" d="M65.1,98.8c-0.1,0-0.1,0-0.1,0v0C65,98.8,65,98.8,65.1,98.8z"/>
		</g>
		<g>
			<path class="st0" d="M65.2,98.8L65.2,98.8c0,0-0.1,0-0.1,0C65.1,98.8,65.2,98.8,65.2,98.8z"/>
		</g>
	</g>
</g>
<g id="Capa_3" class="st3">
	<rect x="96.3" y="7.5" class="st4" width="854" height="54.8"/>
	<rect x="96.3" y="62.3" class="st4" width="854" height="54.8"/>
	<rect x="96.3" y="117" class="st4" width="854" height="54.8"/>
	<rect x="96.3" y="171.8" class="st4" width="854" height="54.8"/>
</g>
</svg>
