<?xml version="1.0" encoding="utf-8"?>
<!-- Generator: Adobe Illustrator 23.0.5, SVG Export Plug-In . SVG Version: 6.00 Build 0)  -->
<svg version="1.1" xmlns="http://www.w3.org/2000/svg" xmlns:xlink="http://www.w3.org/1999/xlink" x="0px" y="0px"
	 viewBox="0 0 483.82 148.24" style="enable-background:new 0 0 483.82 148.24;" xml:space="preserve">
<style type="text/css">
	.st0{fill:#9CC554;}
	.st1{fill:#5FA031;}
	.st2{opacity:0.28;fill:none;stroke:#F2F2F2;stroke-width:39;stroke-miterlimit:10;}
	.st3{fill:#6600FF;}
	.st4{fill:#66BCFF;}
	.st5{display:none;opacity:0.4;}
	.st6{display:inline;fill:none;stroke:#000000;stroke-width:0.5;stroke-miterlimit:10;}
</style>
<g id="Capa_4">
</g>
<g id="Capa_2">
	<g>
		<g>
			<path class="st0" d="M192.16,142.18h-4.97c-2.56,0-4.64-2.08-4.64-4.64V70.68c0-2.56,2.08-4.64,4.64-4.64h4.97
				c2.56,0,4.64,2.08,4.64,4.64v66.86C196.81,140.1,194.73,142.18,192.16,142.18z"/>
			<path class="st0" d="M435.88,80.29v21.94h-7.13c-1.97,0-3.75,0.8-5.04,2.09c-1.29,1.29-2.09,3.07-2.09,5.04v-36.2
				c0,3.94,3.19,7.13,7.13,7.13H435.88z"/>
			<path class="st0" d="M435.88,73.17v7.13h-7.13c-3.94,0-7.13-3.19-7.13-7.13c0-1.97,0.8-3.75,2.09-5.04
				c1.29-1.29,3.07-2.09,5.04-2.09s3.75,0.8,5.04,2.09C435.08,69.42,435.88,71.2,435.88,73.17z"/>
			<path class="st0" d="M428.75,102.24h7.13v32.81c0,3.94-3.19,7.13-7.13,7.13s-7.13-3.19-7.13-7.13v-25.69
				c0-1.97,0.8-3.75,2.09-5.04C425,103.04,426.79,102.24,428.75,102.24z"/>
			<path class="st1" d="M182.55,137.54v-4.97c0-2.56,2.08-4.64,4.64-4.64h47.67c2.56,0,4.64,2.08,4.64,4.64v4.97
				c0,2.56-2.08,4.64-4.64,4.64h-47.67C184.63,142.18,182.55,140.1,182.55,137.54z"/>
			<path class="st0" d="M458.67,66.04c-0.21,0-0.41,0-0.62,0.01c0.06-0.01,0.11-0.01,0.16-0.01c0.08-0.01,0.16-0.01,0.25-0.01
				C458.53,66.03,458.6,66.03,458.67,66.04z"/>
			<path class="st0" d="M458.58,102.24h-0.24c0.04,0,0.08,0,0.12,0S458.54,102.23,458.58,102.24z"/>
			<path class="st0" d="M459.66,116.39c-0.35,0.06-0.71,0.1-1.08,0.1c-0.04,0-0.08,0-0.12,0s-0.08,0-0.12,0
				c-0.42,0-0.84-0.05-1.24-0.13c0.52,0.03,1.05,0.05,1.57,0.05C459,116.41,459.33,116.41,459.66,116.39z"/>
			<path class="st0" d="M458.46,109.36"/>
			<path class="st2" d="M458.46,73.16"/>
			<path class="st0" d="M458.58,102.24h-0.24c0.04,0,0.08,0,0.12,0S458.54,102.23,458.58,102.24z"/>
			<path class="st0" d="M284.26,66.23c0.19-0.03,0.37-0.05,0.56-0.07C284.63,66.18,284.44,66.2,284.26,66.23z"/>
			<path class="st0" d="M286.53,66.23c0.01,0,0.01,0,0.02,0C286.54,66.23,286.53,66.23,286.53,66.23z"/>
			<path class="st0" d="M285.77,66.15c0.07,0,0.13,0.01,0.2,0.02C285.9,66.16,285.84,66.15,285.77,66.15z"/>
			<path class="st0" d="M284.3,66.9L284.3,66.9c0.66-0.33,1.34-0.55,2.03-0.66c-2.18,0.35-4.17,1.7-5.24,3.82l-31.15,61.84
				c-1.77,3.52-0.36,7.8,3.16,9.57h0c3.52,1.77,7.8,0.36,9.57-3.16l24.81-49.25l-6.34-12.59C279.37,72.96,280.78,68.67,284.3,66.9z"
				/>
			<path class="st0" d="M285.01,66.15c0.13-0.01,0.25-0.01,0.38-0.01C285.27,66.14,285.14,66.14,285.01,66.15z"/>
			<path class="st0" d="M284.82,66.17c0.07-0.01,0.13-0.01,0.2-0.02C284.95,66.15,284.88,66.16,284.82,66.17z"/>
			<path class="st0" d="M284.24,66.24c0.01,0,0.01,0,0.02,0C284.25,66.23,284.24,66.23,284.24,66.24z"/>
			<path class="st0" d="M325.02,131.9l-31.15-61.84c-1.07-2.12-3.06-3.47-5.24-3.82c0.69,0.12,1.37,0.33,2.03,0.66h0
				c3.52,1.77,4.93,6.06,3.16,9.57l-6.34,12.59l24.81,49.25c1.77,3.52,6.06,4.93,9.57,3.16h0
				C325.37,139.7,326.79,135.41,325.02,131.9z"/>
			<path class="st0" d="M285.97,66.17c0.19,0.02,0.37,0.03,0.56,0.07C286.34,66.2,286.16,66.18,285.97,66.17z"/>
			<path class="st0" d="M285.39,66.14c0.13,0,0.25,0,0.38,0.01C285.64,66.14,285.52,66.14,285.39,66.14z"/>
			<path class="st1" d="M290.66,66.9L290.66,66.9c-0.66-0.33-1.34-0.55-2.03-0.66c-0.01,0-0.01,0-0.02,0
				c-0.19-0.03-0.37-0.05-0.56-0.07c-0.07-0.01-0.13-0.01-0.2-0.02c-0.13-0.01-0.25-0.01-0.38-0.01c-0.13,0-0.25,0-0.38,0.01
				c-0.07,0-0.13,0.01-0.2,0.02c-0.19,0.02-0.37,0.03-0.56,0.07c-0.01,0-0.01,0-0.02,0c-0.69,0.12-1.37,0.33-2.03,0.66l0,0
				c-3.52,1.77-4.93,6.06-3.16,9.57l6.34,12.59l6.34-12.59C295.59,72.96,294.17,68.67,290.66,66.9z"/>
			<path class="st0" d="M459.66,116.39c-0.35,0.06-0.71,0.1-1.08,0.1c-0.04,0-0.08,0-0.12,0s-0.08,0-0.12,0
				c-0.42,0-0.84-0.05-1.24-0.13c0.52,0.03,1.05,0.05,1.57,0.05C459,116.41,459.33,116.41,459.66,116.39z"/>
			<path class="st1" d="M404.61,139.22l-3.81,3.19c-1.96,1.65-4.89,1.39-6.53-0.57l-55.41-66.03c-1.65-1.96-1.39-4.89,0.57-6.53
				l3.81-3.19c1.96-1.65,4.89-1.39,6.53,0.57l55.41,66.03C406.83,134.65,406.57,137.58,404.61,139.22z"/>
			<path class="st0" d="M435.88,80.29v-7.13c0-1.97-0.8-3.75-2.09-5.04c-1.29-1.29-3.07-2.09-5.04-2.09h29.46
				c-0.06,0-0.11,0-0.16,0.01c-3.75,0.21-6.72,3.31-6.72,7.12c0,3.94,3.19,7.13,7.13,7.13H435.88z"/>
			<path class="st1" d="M435.88,73.17v7.13h-7.13c-3.94,0-7.13-3.19-7.13-7.13c0-1.97,0.8-3.75,2.09-5.04
				c1.29-1.29,3.07-2.09,5.04-2.09s3.75,0.8,5.04,2.09C435.08,69.42,435.88,71.2,435.88,73.17z"/>
			<path class="st0" d="M458.67,66.04c-0.21,0-0.41,0-0.62,0.01c0.06-0.01,0.11-0.01,0.16-0.01H458.67z"/>
			<path class="st0" d="M481.06,140.8c-3.11,2.41-7.58,1.84-9.99-1.27l-17.32-22.36c-0.17-0.22-0.32-0.44-0.46-0.67h-17.41v-14.25
				h22.46c-3.88,0.06-7.01,3.23-7.01,7.13c0,1.28,0.34,2.49,0.94,3.53v0c1,1.77,2.76,3.07,4.83,3.47c0.4,0.08,0.82,0.13,1.24,0.13
				c0.04,0,0.08,0,0.12,0s0.08,0,0.12,0c0.37,0,0.73-0.04,1.08-0.1c3.46-0.13,6.73-0.96,9.69-2.35l1.9,2.45l11.08,14.32
				C484.74,133.92,484.17,138.39,481.06,140.8z"/>
			<path class="st1" d="M435.88,102.24v14.25h-7.13c-3.94,0-7.13-3.19-7.13-7.13c0-1.97,0.8-3.75,2.09-5.04
				c1.29-1.29,3.07-2.09,5.04-2.09H435.88z"/>
			<path class="st1" d="M483.85,91.22c0,4.43-1.15,8.6-3.16,12.22c-2.57,4.62-6.54,8.34-11.34,10.6c-2.96,1.39-6.23,2.22-9.69,2.35
				c-0.33,0.01-0.66,0.02-0.99,0.02c-0.53,0-1.05-0.02-1.57-0.05c-2.07-0.4-3.82-1.7-4.83-3.47v0c-0.6-1.04-0.94-2.24-0.94-3.53
				c0-3.9,3.13-7.06,7.01-7.13h0.24c-0.04,0-0.08,0-0.12,0h0.08c6.06,0,10.97-4.91,10.97-10.97c0-6.06-4.91-10.97-10.97-10.97h-0.08
				c-3.94,0-7.13-3.19-7.13-7.13c0-3.8,2.97-6.91,6.72-7.12c0.21,0,0.41-0.01,0.62-0.01h0.06c9.47,0.02,17.72,5.27,22,13.02
				C482.72,82.67,483.85,86.82,483.85,91.22z"/>
			<path class="st0" d="M458.67,116.41c0.33,0,0.66-0.01,0.99-0.02c-0.35,0.06-0.71,0.1-1.08,0.1h-0.24c-0.42,0-0.84-0.05-1.24-0.13
				C457.61,116.4,458.14,116.41,458.67,116.41z"/>
			<path class="st1" d="M256.04,123.96v-4.97c0-2.56,2.08-4.64,4.64-4.64h53.37c2.56,0,4.64,2.08,4.64,4.64v4.97
				c0,2.56-2.08,4.64-4.64,4.64h-53.37C258.12,128.6,256.04,126.52,256.04,123.96z"/>
			<path class="st0" d="M400.87,142.18h-4.97c-2.56,0-4.64-2.08-4.64-4.64V70.68c0-2.56,2.08-4.64,4.64-4.64h4.97
				c2.56,0,4.64,2.08,4.64,4.64v66.86C405.51,140.1,403.43,142.18,400.87,142.18z"/>
			<path class="st0" d="M348.35,142.18h-4.97c-2.56,0-4.64-2.08-4.64-4.64V70.68c0-2.56,2.08-4.64,4.64-4.64h4.97
				c2.56,0,4.64,2.08,4.64,4.64v66.86C352.99,140.1,350.91,142.18,348.35,142.18z"/>
		</g>
	</g>
	<g>
		<g>
			<path class="st0" d="M130.14,84.91c-0.58-19.58-6.67-36.5-7.34-38.31c-6.76-25.22-17.1-40.39-30.76-45.09
				C79.99-2.62,69.21,2.74,65.09,5.28c-4.12-2.53-14.9-7.9-26.95-3.76c-13.65,4.7-24,19.87-30.76,45.09
				c-0.67,1.81-6.76,18.73-7.34,38.31c-0.36,12.07,1.48,22.62,5.47,31.35c5.04,11.05,13.49,19.16,25.1,24.1
				c1.14,0.59,9.2,4.58,21.16,6.66c4.03,0.7,8.78,1.22,14.03,1.22c9.97,0,21.75-1.86,33.76-7.88c11.62-4.94,20.06-13.04,25.1-24.1
				C128.65,107.53,130.49,96.98,130.14,84.91z M97.31,135.27l-0.16,0.08c-13.59,6.82-28.47,8.92-44.22,6.22
				c-11.84-2.03-20.1-6.32-20.1-6.32C14.05,127.29,4.89,110.46,5.6,85.2c0.54-19.36,6.97-36.59,7.03-36.76l0.08-0.27
				c3.42-12.82,7.81-22.93,13.04-30.05c4.2-5.72,8.95-9.52,14.14-11.32c9.97-3.46,19.28,1.37,22.46,3.33v24.23
				c0,0.67,0.31,1.28,0.8,1.73c0.49,0.44,1.18,0.71,1.94,0.71c1.51,0,2.74-1.09,2.74-2.44V10.13c3.15-1.97,12.39-6.79,22.4-3.34
				c5.2,1.79,9.97,5.59,14.17,11.3c5.24,7.12,9.63,17.24,13.06,30.08l0.09,0.27c0.06,0.17,6.49,17.4,7.03,36.76
				C125.29,110.47,116.11,127.32,97.31,135.27z"/>
		</g>
		<path class="st3" d="M65.17,88.62"/>
		<path class="st0" d="M75.44,52.37c-2.86,2.85-6.61,4.27-10.35,4.27c-3.77,0-7.53-1.44-10.39-4.31
			c-5.64-5.66-5.69-14.81-0.16-20.54c0.01-0.01,0.01-0.01,0.02-0.02c0.06-0.06,0.12-0.13,0.19-0.19c0.36-0.33,0.84-0.53,1.36-0.53
			c1.12,0,2.02,0.9,2.02,2.02c0,0.52-0.2,1-0.53,1.36l0.01,0.01c-4.15,4.14-4.16,10.87-0.03,15.02c4.13,4.15,10.87,4.16,15.02,0.03
			c4.15-4.14,4.16-10.87,0.03-15.02c-0.39-0.37-0.63-0.89-0.63-1.46c0-1.12,0.91-2.02,2.02-2.02c0.58,0,1.1,0.24,1.47,0.63l0,0
			C81.19,37.35,81.17,46.66,75.44,52.37z"/>
		<g>
			<path class="st0" d="M104.15,132.19c-0.05,0.68-0.67,6.62-4.99,8.11c-0.63,0.22-1.27,0.32-1.89,0.32c-3.93,0-7.51-3.85-8.81-5.25
				c-4.07-4.39-7.6-10.28-11.02-15.97c-4.17-6.95-8.88-14.81-12.36-15c-3.48,0.19-8.19,8.05-12.36,15
				c-3.41,5.7-6.95,11.59-11.02,15.97c-1.3,1.39-4.88,5.25-8.81,5.25c-0.62,0-1.25-0.1-1.89-0.32c-4.32-1.49-4.93-7.44-4.99-8.11
				l0.32-0.03l23.64-49.21l5.02,2.41l-23.08,48.05c0.27,0.87,0.65,1.54,0.91,1.63c0.26,0.09,1.82-0.24,4.8-3.46
				c3.68-3.96,7.05-9.59,10.32-15.04c5.62-9.38,10.49-17.5,17-17.71c0.05,0,0.09,0,0.13,0c0.04,0,0.09,0,0.13,0
				c6.51,0.21,11.38,8.33,17,17.71c3.27,5.45,6.65,11.08,10.32,15.04c2.99,3.22,4.55,3.55,4.8,3.46c0.29-0.1,0.66-0.83,0.93-1.69
				L75.18,85.28l5.02-2.41l23.68,49.3L104.15,132.19z"/>
		</g>
		<g>
			<path class="st4" d="M122.63,45.9c-0.55-1.2-1.5-2.08-2.74-2.56c-0.2-0.15-0.42-0.27-0.65-0.38c-1.65-0.73-6.02-2.68-40.79,18.76
				l-0.29,0.18l-0.24,0.24c-0.31,0.32-7.27,7.64-3.21,19.98c-5.82,2.26-9,2.37-9.37,2.37h-0.32c0,0-0.01,0-0.02,0
				c-0.28,0-3.47-0.08-9.38-2.37c4.06-12.34-2.9-19.66-3.21-19.98l-0.24-0.24l-0.29-0.18C17.09,40.28,12.72,42.22,11.07,42.96
				c-0.24,0.1-0.46,0.23-0.65,0.38c-1.24,0.48-2.19,1.37-2.74,2.56c-1.6,3.5,0.96,8.6,1.78,10.07l0.21,0.37l0.31,0.29
				c18.87,18,32.96,26.13,41.46,29.78c7.72,3.32,12.24,3.63,13.47,3.64h0.09c0.05,0,0.09,0,0.12,0c0.04,0,0.07,0,0.09,0
				c0.04,0,0.08,0,0.12,0h0.01c1.1,0,5.64-0.24,13.55-3.64c8.5-3.65,22.59-11.78,41.46-29.78l0.3-0.29l0.21-0.37
				C121.67,54.49,124.22,49.4,122.63,45.9z M50.48,79.86c-8.18-4.01-20.43-11.81-36.35-26.94c-0.83-1.61-1.45-3.57-1.42-4.45
				l1.14-0.24c2.39,0.43,10.47,3.07,34.75,18.02C49.45,67.27,52.84,72.03,50.48,79.86z M116.17,52.92
				c-15.92,15.13-28.17,22.93-36.35,26.94c-2.35-7.81,1.03-12.58,1.89-13.62c24.28-14.94,32.36-17.58,34.74-18.02l1.14,0.24
				C117.62,49.34,117,51.31,116.17,52.92z"/>
		</g>
		<g>
			<path class="st0" d="M65.09,98.83c-0.05,0-0.09,0-0.13,0v-0.01C65,98.83,65.04,98.83,65.09,98.83z"/>
		</g>
		<g>
			<path class="st0" d="M65.22,98.83L65.22,98.83c-0.04,0-0.09,0-0.13,0C65.13,98.83,65.18,98.83,65.22,98.83z"/>
		</g>
	</g>
</g>
<g id="Capa_3" class="st5">
	<rect x="96.29" y="7.53" class="st6" width="854" height="54.75"/>
	<rect x="96.29" y="62.28" class="st6" width="854" height="54.75"/>
	<rect x="96.29" y="117.03" class="st6" width="854" height="54.75"/>
	<rect x="96.29" y="171.78" class="st6" width="854" height="54.75"/>
</g>
</svg>
